<svg width="100" height="22" viewBox="0 0 100 22" fill="none" xmlns="http://www.w3.org/2000/svg">
<path d="M0.994318 4.18608V0.636363H17.7188V4.18608H11.4844V21H7.22869V4.18608H0.994318ZM21.4947 21H16.881L23.9109 0.636363H29.4592L36.479 21H31.8654L26.7646 5.28977H26.6055L21.4947 21ZM21.2063 12.9957H32.104V16.3565H21.2063V12.9957ZM49.5121 6.4929C49.4325 5.69081 49.0911 5.06771 48.4879 4.62358C47.8847 4.17945 47.0661 3.95739 46.032 3.95739C45.3293 3.95739 44.736 4.05682 44.2521 4.25568C43.7682 4.44792 43.397 4.71638 43.1385 5.06108C42.8866 5.40578 42.7607 5.79688 42.7607 6.23438C42.7474 6.59896 42.8236 6.91714 42.9893 7.18892C43.1617 7.4607 43.397 7.69602 43.6953 7.89489C43.9936 8.08712 44.3383 8.25615 44.7294 8.40199C45.1205 8.54119 45.5381 8.66051 45.9822 8.75994L47.8118 9.19744C48.7 9.39631 49.5154 9.66146 50.2578 9.9929C51.0002 10.3243 51.6432 10.732 52.1868 11.2159C52.7304 11.6998 53.1513 12.2699 53.4496 12.9261C53.7545 13.5824 53.9103 14.3348 53.9169 15.1832C53.9103 16.4295 53.5921 17.5099 52.9624 18.4247C52.3393 19.3329 51.4377 20.0388 50.2578 20.5426C49.0845 21.0398 47.6693 21.2884 46.0121 21.2884C44.3681 21.2884 42.9363 21.0365 41.7166 20.5327C40.5036 20.0289 39.5556 19.2831 38.8729 18.2955C38.1967 17.3011 37.8421 16.0715 37.8089 14.6065H41.9751C42.0215 15.2893 42.2171 15.8594 42.5618 16.3168C42.9131 16.7675 43.3804 17.1089 43.9638 17.3409C44.5537 17.5663 45.2199 17.679 45.9624 17.679C46.6915 17.679 47.3246 17.5729 47.8615 17.3608C48.4051 17.1487 48.826 16.8537 49.1243 16.4759C49.4226 16.098 49.5717 15.6638 49.5717 15.1733C49.5717 14.7159 49.4358 14.3314 49.1641 14.0199C48.8989 13.7083 48.5078 13.4432 47.9908 13.2244C47.4804 13.0057 46.8539 12.8068 46.1115 12.6278L43.8942 12.071C42.1773 11.6534 40.8217 11.0005 39.8274 10.1122C38.8331 9.22396 38.3393 8.02746 38.3459 6.52273C38.3393 5.28977 38.6674 4.21259 39.3303 3.29119C39.9998 2.36979 40.9179 1.65057 42.0845 1.13352C43.2512 0.616477 44.5769 0.357954 46.0618 0.357954C47.5732 0.357954 48.8923 0.616477 50.0192 1.13352C51.1527 1.65057 52.0343 2.36979 52.6641 3.29119C53.2938 4.21259 53.6186 5.27983 53.6385 6.4929H49.5121ZM56.8129 21V0.636363H61.1183V9.61506H61.3867L68.7148 0.636363H73.8754L66.3185 9.75426L73.9648 21H68.8143L63.2362 12.6278L61.1183 15.2131V21H56.8129Z" fill="#48C15B"/>
<path d="M80.4229 0.636363V21H76.1175V0.636363H80.4229ZM83.1896 4.18608V0.636363H99.9141V4.18608H93.6797V21H89.424V4.18608H83.1896Z" fill="black"/>
</svg>
